HIERARCHY
ROOT Hips
{
	OFFSET 0.000000 0.000000 0.000000
	CHANNELS 6 Xposition Yposition Zposition Zrotation Yrotation Xrotation 
	JOINT LHipJoint
	{
		OFFSET 0.000000 0.000000 0.000000
		CHANNELS 3 Zrotation Yrotation Xrotation
		JOINT LeftUpLeg
		{
			OFFSET 1.363060 -1.794630 0.839290
			CHANNELS 3 Zrotation Yrotation Xrotation
			JOINT LeftLeg
			{
				OFFSET 2.448110 -6.726130 0.000000
				CHANNELS 3 Zrotation Yrotation Xrotation
				JOINT LeftFoot
				{
					OFFSET 2.562200 -7.039590 0.000000
					CHANNELS 3 Zrotation Yrotation Xrotation
					JOINT LeftToeBase
					{
						OFFSET 0.157640 -0.433110 2.322550
						CHANNELS 3 Zrotation Yrotation Xrotation
						End Site
						{
							OFFSET 0.000000 0.000000 0.000000
						}
					}
				}
			}
		}
	}
	JOINT RHipJoint
	{
		OFFSET 0.000000 0.000000 0.000000
		CHANNELS 3 Zrotation Yrotation Xrotation
		JOINT RightUpLeg
		{
			OFFSET -1.305520 -1.794630 0.839290
			CHANNELS 3 Zrotation Yrotation Xrotation
			JOINT RightLeg
			{
				OFFSET -2.542530 -6.985550 0.000000
				CHANNELS 3 Zrotation Yrotation Xrotation
				JOINT RightFoot
				{
					OFFSET -2.568260 -7.056230 0.000000
					CHANNELS 3 Zrotation Yrotation Xrotation
					JOINT RightToeBase
					{
						OFFSET -0.164730 -0.452590 2.363150
						CHANNELS 3 Zrotation Yrotation Xrotation
						End Site
						{
							OFFSET 0.000000 0.000000 0.000000
						}
					}
				}
			}
		}
	}
}
MOTION
Frames: 31
Frame Time: 0.008333
-2.453447 16.796530 0.123811 5.523320 55.558754 18.775214 -9.850906 0.309702 2.150587 -1.983629 3.233057 -34.124360 -2.428652 0.334536 13.758522 -0.299490 -3.968290 5.691363 -0.632800 0.000000 -46.427900 9.981443 -1.462565 2.510370 11.097678 13.961271 -16.411727 1.051757 -2.879932 48.862946 0.662743 9.441185 -14.347620 -0.919300 0.000000 -2.247000
-2.300658 16.785697 0.178754 6.214469 53.940839 19.252683 -9.855163 0.475572 1.876493 -3.134401 4.792321 -34.159066 -2.510606 0.434559 14.980552 -0.231713 -3.361832 5.979889 -0.521600 0.000000 -45.960400 10.319042 -1.514885 2.441984 10.226649 12.759996 -17.992104 0.619448 -3.055632 51.923190 0.396861 7.051276 -13.873233 -0.596900 -0.000000 -5.697900
-2.153358 16.779649 0.232135 6.769799 52.288192 19.635743 -9.843091 0.630945 1.615368 -4.211404 6.273888 -34.143142 -2.593195 0.507989 16.059133 -0.153140 -2.617834 5.896943 -0.357800 -0.000000 -45.631801 10.620820 -1.522984 2.387254 9.445772 11.670389 -19.641098 0.198699 -3.203643 54.771522 0.033237 4.109341 -13.509289 -0.268500 -0.000001 -8.939500
-2.010764 16.778798 0.282953 7.174077 50.613073 19.915290 -9.821073 0.771357 1.380317 -5.162475 7.595564 -34.048667 -2.667631 0.555374 16.990035 -0.061054 -1.737847 5.466312 -0.156700 -0.000000 -45.463100 10.877904 -1.485196 2.342494 8.780552 10.702551 -21.328515 -0.187277 -3.324657 57.342638 -0.415711 0.831574 -13.327711 0.033400 -0.000000 -11.473000
-1.871962 16.783253 0.330495 7.421855 48.926177 20.090478 -9.796752 0.892654 1.181668 -5.945759 8.694802 -33.851206 -2.725496 0.577730 17.769288 0.047685 -0.732738 4.746484 0.060500 0.000000 -45.448100 11.083139 -1.406059 2.303956 8.247134 9.859489 -23.029313 -0.514442 -3.422151 59.594919 -0.917684 -2.498849 -13.433898 0.306700 0.000000 -12.540600
-1.735964 16.792936 0.374505 7.515807 47.235152 20.166985 -9.777894 0.991976 1.025780 -6.532011 9.533500 -33.533466 -2.759762 0.577227 18.395745 0.175270 0.376655 3.822840 0.271600 0.000000 -45.560700 11.231889 -1.295954 2.267955 7.854748 9.138014 -24.722598 -0.767035 -3.501239 61.501363 -1.424677 -5.588156 -13.882682 0.580800 -0.000000 -11.892900
-1.601920 16.807548 0.415187 7.470187 45.546188 20.158146 -9.770550 1.068717 0.914793 -6.909786 10.096427 -33.084717 -2.765709 0.556917 18.868781 0.321785 1.563523 2.796737 0.459300 -0.000000 -45.765300 11.323759 -1.168098 2.231629 7.603345 8.528786 -26.390848 -0.942743 -3.566265 63.039704 -1.884995 -8.190738 -14.603392 0.878801 -0.000000 -10.294600
-1.469163 16.826567 0.453105 7.302636 43.864416 20.077049 -9.779262 1.124240 0.845273 -7.081240 10.399902 -32.505577 -2.741573 0.521689 19.197133 0.483415 2.787711 1.770394 0.613200 0.000000 -46.028300 11.360966 -1.034903 2.192258 7.492123 8.018264 -28.018237 -1.046044 -3.619895 64.202523 -2.255594 -10.134596 -15.477863 1.192100 -0.000000 -8.643300
-1.337357 16.849263 0.489252 7.039572 42.196092 19.938703 -9.805547 1.162640 0.809594 -7.066257 10.482055 -31.800626 -2.688935 0.476910 19.391432 0.652570 4.002437 0.837717 0.732400 -0.000001 -46.325000 11.349401 -0.906452 2.146679 7.513536 7.585047 -29.590516 -1.080731 -3.664567 65.000796 -2.508612 -11.320303 -16.435734 1.492800 -0.000001 -7.119600
-1.206491 16.874887 0.524853 6.712369 40.546744 19.759386 -9.847780 1.189882 0.796479 -6.899028 10.399045 -30.980335 -2.612904 0.428079 19.464870 0.818706 5.156337 0.073080 0.823800 -0.000000 -46.642400 11.298167 -0.789535 2.093793 7.651542 7.210248 -31.093708 -1.052578 -3.701898 65.451798 -2.632363 -11.728246 -17.399783 1.738600 -0.000000 -5.791700
-1.076820 16.902523 0.561213 6.350676 38.920162 19.554541 -9.902408 1.212603 0.792762 -6.621209 10.220533 -30.062721 -2.521638 0.380378 19.434741 0.969813 6.194931 -0.478089 0.897100 0.000000 -46.979500 11.217538 -0.687687 2.036616 7.885173 6.885573 -32.516350 -0.970233 -3.732233 65.575113 -2.629802 -11.414208 -18.273820 1.883200 0.000000 -4.823200
-0.948755 16.931318 0.599630 5.982737 37.318900 19.339833 -9.963974 1.237232 0.785498 -6.279232 10.016624 -29.068665 -2.425111 0.337442 19.316116 1.095062 7.070458 -0.800318 0.962000 -0.000000 -47.343300 11.118628 -0.601348 1.981279 8.186150 6.611350 -33.851215 -0.844634 -3.755190 65.392624 -2.516100 -10.495173 -18.965475 1.896200 -0.000000 -4.396700
-0.822764 16.960481 0.641289 5.633084 35.743826 19.130642 -10.026422 1.269227 0.764101 -5.918086 9.850681 -28.021320 -2.333536 0.301164 19.123026 1.186701 7.747157 -0.906465 1.023400 -0.000000 -47.744299 11.011739 -0.528518 1.936379 8.523158 6.394506 -35.097709 -0.689238 -3.769548 64.928262 -2.316975 -9.139138 -19.397964 1.775700 0.000000 -4.738900
-0.699347 16.989351 0.687089 5.320986 34.195454 18.940650 -10.083861 1.312386 0.721570 -5.577548 9.771070 -26.943262 -2.255794 0.271507 18.865880 1.241297 8.206813 -0.831207 1.081300 0.000001 -48.193799 10.905198 -0.465697 1.910742 8.865690 6.243535 -36.260930 -0.518814 -3.773564 64.206057 -2.066025 -7.548232 -19.525582 1.551201 0.000000 -6.085700
-0.578812 17.017366 0.737648 5.059495 32.672623 18.781729 -10.131186 1.369013 0.655265 -5.289444 9.807970 -25.856496 -2.198395 0.247090 18.554141 1.259863 8.450745 -0.623152 1.131400 -0.000000 -48.702399 10.804539 -0.408678 1.911801 9.188619 6.163702 -37.352357 -0.347457 -3.765169 63.249872 -1.801020 -5.937137 -19.346978 1.274800 0.000000 -8.608400
-0.461324 17.044156 0.793285 4.854676 31.174856 18.661806 -10.164720 1.439899 0.566629 -5.076496 9.971796 -24.779906 -2.164795 0.225608 18.195426 1.247136 8.499306 -0.334890 1.168300 0.000000 -49.277400 10.711826 -0.354060 1.944346 9.475837 6.154117 -38.386278 -0.185907 -3.742444 62.079934 -1.558698 -4.505925 -18.907319 1.004199 0.000000 -12.329000
-0.346809 17.069434 0.853990 4.705925 29.701758 18.585614 -10.182567 1.524718 0.460384 -4.951676 10.257048 -23.730426 -2.155607 0.204634 17.797804 1.210136 8.386756 -0.015356 1.187700 -0.000000 -49.923700 10.625649 -0.299788 2.009686 9.723500 6.205835 -39.378470 -0.038401 -3.704029 60.717295 -1.370422 -3.411275 -18.314463 0.786299 -0.000000 -16.824400
-0.235093 17.093058 0.919470 4.606039 28.254222 18.551911 -10.184936 1.622061 0.342896 -4.917599 10.646981 -22.720291 -2.168788 0.182077 17.369225 1.156796 8.156041 0.296852 1.188800 -0.000001 -50.638900 10.541382 -0.245761 2.105780 9.940346 6.303964 -40.340653 0.099363 -3.649378 59.185739 -1.258840 -2.742090 -17.741842 0.647000 -0.000001 -21.039499
-0.125827 17.114953 0.989268 4.544635 26.834282 18.558169 -10.173479 1.729988 0.221030 -4.971363 11.116448 -21.758280 -2.200539 0.156415 16.916081 1.095071 7.854999 0.577129 1.174500 0.000000 -51.410300 10.453712 -0.193717 2.229901 10.139964 6.433506 -41.278497 0.231844 -3.577248 57.495632 -1.234102 -2.524420 -17.297787 0.585500 -0.000000 -24.377500
-0.018611 17.135074 1.062832 4.508531 25.444987 18.598689 -10.151287 1.846097 0.100553 -5.103629 11.640425 -20.849598 -2.246078 0.127042 16.445090 1.031791 7.528525 0.814098 1.150300 0.000000 -52.217500 10.356839 -0.146501 2.378106 10.341115 6.579515 -42.190581 0.367491 -3.486293 55.654832 -1.296018 -2.711427 -17.087287 0.591600 0.000000 -26.023300
0.086944 17.153337 1.139541 4.483209 24.089975 18.665774 -10.122386 1.967722 -0.014992 -5.300508 12.198161 -19.995094 -2.300384 0.094209 15.961373 0.972165 7.214306 1.008992 1.122500 0.000000 -53.032300 10.245673 -0.107663 2.545943 10.564221 6.729177 -43.067756 0.515367 -3.374512 53.661903 -1.434205 -3.198890 -17.166835 0.653000 -0.000000 -25.399199
0.191164 17.169696 1.218847 4.457238 22.773225 18.751038 -10.090815 2.092621 -0.124421 -5.547668 12.774405 -19.189925 -2.358913 0.058715 15.466436 0.919802 6.941932 1.173325 1.097600 -0.000000 -53.819199 10.117708 -0.081446 2.729437 10.825533 6.871252 -43.893214 0.680631 -3.238983 51.497639 -1.628241 -3.854940 -17.489364 0.754400 0.000000 -22.774400
0.294288 17.183997 1.300259 4.421419 21.497967 18.845199 -10.060325 2.218792 -0.229788 -5.829104 13.364079 -18.425009 -2.418231 0.021993 14.960612 0.876373 6.728068 1.323286 1.080100 0.000000 -54.544600 9.972910 -0.071694 2.924354 11.137854 6.997785 -44.645579 0.867259 -3.076724 49.140194 -1.850413 -4.536909 -17.964566 0.877400 0.000000 -18.721900
0.396281 17.196048 1.383415 4.371798 20.269209 18.936685 -10.033803 2.345147 -0.334824 -6.129595 13.969573 -17.684706 -2.476026 -0.014564 14.440584 0.841950 6.578253 1.477479 1.073100 0.000000 -55.176500 9.814057 -0.081905 3.126910 11.507466 7.102120 -45.298330 1.078228 -2.885074 46.572383 -2.069001 -5.113792 -18.482948 0.998801 -0.000000 -13.987100
0.497133 17.205537 1.468150 4.305551 19.088881 19.016904 -10.013596 2.470471 -0.446249 -6.433661 14.604410 -16.955811 -2.531868 -0.049124 13.906217 0.814921 6.482992 1.648644 1.076300 -0.000001 -55.699600 9.646491 -0.113455 3.333767 11.934257 7.185153 -45.825983 1.312895 -2.661684 43.784053 -2.251839 -5.491072 -18.901525 1.088000 -0.000000 -9.609300
0.596497 17.212139 1.554395 4.227090 17.963066 19.074640 -10.000338 2.594654 -0.569780 -6.728842 15.282089 -16.219450 -2.586084 -0.080718 13.355335 0.792764 6.425604 1.845367 1.087900 0.000000 -56.103200 9.476580 -0.165095 3.542245 12.409295 7.246384 -46.205889 1.573065 -2.404910 40.788798 -2.374576 -5.605275 -19.164050 1.126900 0.000000 -5.971500
0.694119 17.215480 1.642239 4.141332 16.896359 19.105202 -9.993641 2.717027 -0.711415 -7.004085 16.017513 -15.464985 -2.640262 -0.108523 12.791138 0.772236 6.380841 2.066587 1.103500 0.000000 -56.402800 9.310880 -0.231605 3.750398 12.917180 7.290465 -46.426843 1.857774 -2.113079 37.611357 -2.423134 -5.438917 -19.241780 1.108500 0.000000 -3.340200
0.789742 17.215270 1.731922 4.056884 15.894766 19.107112 -9.991960 2.837430 -0.873747 -7.253035 16.816440 -14.684954 -2.696052 -0.132645 12.218456 0.750335 6.324077 2.304591 1.118200 -0.000000 -56.624500 9.155286 -0.305274 3.957903 13.434867 7.320817 -46.490470 2.163262 -1.784851 34.287052 -2.395434 -5.012065 -19.148061 1.039700 -0.000000 -1.701500
0.883139 17.211312 1.823629 3.985099 14.965010 19.081195 -9.992965 2.956155 -1.055425 -7.473789 17.672624 -13.875469 -2.754595 -0.153817 11.644771 0.724793 6.235446 2.547166 1.127200 -0.000000 -56.800199 9.015097 -0.377571 4.165453 13.935268 7.338142 -46.408434 2.480895 -1.419778 30.852823 -2.298981 -4.376573 -18.901322 0.934000 -0.000000 -1.057400
0.974329 17.203552 1.917806 3.934621 14.111459 19.037875 -9.994273 3.072859 -1.252094 -7.668383 18.567616 -13.045934 -2.816580 -0.172800 11.082969 0.694399 6.101507 2.778825 1.126300 0.000001 -56.985300 8.894270 -0.439923 4.373719 14.394936 7.342419 -46.207773 2.798387 -1.018957 27.343854 -2.148957 -3.606782 -18.517449 0.806900 0.000000 -1.437200
1.063300 17.192100 2.014567 3.915997 13.337643 18.981137 -9.993531 3.188085 -1.455800 -7.841407 19.468030 -12.196759 -2.880721 -0.190492 10.543129 0.659489 5.922204 2.988020 1.114600 0.000000 -57.219100 8.796657 -0.486001 4.579781 14.796658 7.320480 -45.912460 3.101202 -0.586538 23.793648 -1.962970 -2.783431 -17.999747 0.671300 -0.000000 -2.954000
